<svg xmlns="http://www.w3.org/2000/svg" width="1200" height="630" viewBox="0 0 1200 630">
  <defs>
    <!-- A very faint neutral light behind the headline. -->
    <radialGradient id="light" cx="360" cy="260" r="760" gradientUnits="userSpaceOnUse">
      <stop offset="0" stop-color="#fff" stop-opacity="0.05"/>
      <stop offset="1" stop-color="#fff" stop-opacity="0"/>
    </radialGradient>
  </defs>
  <rect width="1200" height="630" fill="#0a0a0a"/>
  <rect width="1200" height="630" fill="url(#light)"/>

  <g font-family="Geist Variable">
    <!-- The lockup (brand/lockup-dark.svg) at twice its size. -->
    <svg x="80" y="70" width="256" height="64" viewBox="0 0 192 48">
      <g transform="scale(1.5)">
        <rect width="32" height="32" rx="8" fill="#0a0a0a"/>
        <path fill="#fff" fill-opacity=".15" fill-rule="evenodd" d="M8 0H24A8 8 0 0 1 32 8V24A8 8 0 0 1 24 32H8A8 8 0 0 1 0 24V8A8 8 0 0 1 8 0ZM8 1A7 7 0 0 0 1 8V24A7 7 0 0 0 8 31H24A7 7 0 0 0 31 24V8A7 7 0 0 0 24 1Z"/>
        <rect x="10" y="10" width="12" height="12" rx="3" fill="#cefc5d"/>
      </g>
      <g fill="#fafafa">
        <path d="M71.8631 21.5534C71.8631 25.2787 69.5299 27.4266 65.459 27.4266H62.2804V31.9977H58.6666V15.9998H65.459C69.5299 15.9998 71.8631 18.0111 71.8631 21.5534ZM68.4325 21.6676C68.4325 19.8852 67.2886 18.9941 65.2763 18.9941H62.2804V24.4105H65.2763C67.2886 24.4105 68.4325 23.4958 68.4325 21.6676Z"/>
        <path d="M77.5266 15.9998V23.999H84.7766V15.9998H88.3883V31.9977H84.7766V27.1982H77.5266V31.9977H73.916V15.9998H77.5266Z"/>
        <path d="M102.261 28.798H94.9242L93.6297 31.9998H89.9017L96.8542 16.002H100.582L107.421 31.9998H103.555L102.261 28.798ZM100.974 25.5962L98.6133 19.7711L96.2332 25.5984L100.974 25.5962Z"/>
        <path d="M112.686 15.9998V28.8439H119.547V31.9977H109.072V15.9998H112.686Z"/>
        <path d="M132.71 28.798H125.373L124.078 31.9998H120.35L127.303 16.002H131.031L137.867 31.9998H134.001L132.71 28.798ZM131.423 25.5962L129.064 19.7689L126.684 25.5962H131.423Z"/>
        <path transform="translate(87.15)" d="M71.8631 21.5534C71.8631 25.2787 69.5299 27.4266 65.459 27.4266H62.2804V31.9977H58.6666V15.9998H65.459C69.5299 15.9998 71.8631 18.0111 71.8631 21.5534ZM68.4325 21.6676C68.4325 19.8852 67.2886 18.9941 65.2763 18.9941H62.2804V24.4105H65.2763C67.2886 24.4105 68.4325 23.4958 68.4325 21.6676Z"/>
        <path transform="translate(69.32)" d="M102.261 28.798H94.9242L93.6297 31.9998H89.9017L96.8542 16.002H100.582L107.421 31.9998H103.555L102.261 28.798ZM100.974 25.5962L98.6133 19.7711L96.2332 25.5984L100.974 25.5962Z"/>
        <path d="M176.19 16H180.056L182.8794 22.9868L185.7267 16H189.4547L184.6856 26.9738V32H181.0731V27.4227Z"/>
      </g>
    </svg>

    <!-- The text's stems line up with the tile's left edge, x = 80: each line starts at 80 less its
         first glyph's side bearing (F, R, p). -->

    <!-- The hero's headline. -->
    <text font-size="84" font-weight="600" letter-spacing="-2.8" fill="#fafafa">
      <tspan x="73.3" y="300">Crypto payments,</tspan>
      <tspan x="73.3" y="394">without a custodian</tspan>
    </text>

    <!-- One supporting line (zinc-300, 13:1), and the address (zinc-400, 7.8:1). -->
    <text x="77" y="466" font-size="34" font-weight="450" fill="#d4d4d8">Self-hosted. Open source. No per-payment fee.</text>
    <text x="77.7" y="558" font-size="30" font-weight="450" fill="#a1a1aa">pay.phala.com</text>
  </g>
</svg>
